<svg version="1" xmlns="http://www.w3.org/2000/svg" width="853.333" height="853.333" viewBox="0 0 640.000000 640.000000"><path d="M0 320v320h640V0H0v320zm293.5-131.3c-.9 67.5-.9 187.9 0 260.1l.8 56.2-26.4-.2-26.3-.3.3-41c.2-22.6.6-64.9 1-94 .3-29.2.3-78.4-.1-109.5-.4-31.1-.8-71.7-1-90.3l-.3-33.7h52.8l-.8 52.7zm136-51c-.3 1-13.7 27.2-29.7 58.3-16 31.1-33.3 64.8-38.6 75-5.2 10.2-11.2 21.7-13.3 25.7-2.2 4-3.9 7.8-3.9 8.6 0 .7 12.6 29 28.1 62.8C428 490.5 434 503.7 434 504.3c0 .4-12.5.7-27.9.7h-27.9l-11.7-27.3c-6.4-14.9-25.4-59-42.1-97.9l-30.3-70.7 13.5-28.8c7.5-15.8 14.6-31.1 15.9-33.8 1.3-2.8 8.4-18.1 15.9-34 7.5-16 18.7-39.7 24.9-52.8l11.1-23.7h27.4c25.7 0 27.4.1 26.7 1.7z"/></svg>