<?xml version="1.0" standalone="no"?>
<!DOCTYPE svg PUBLIC "-//W3C//DTD SVG 20010904//EN"
 "http://www.w3.org/TR/2001/REC-SVG-20010904/DTD/svg10.dtd">
<svg version="1.0" xmlns="http://www.w3.org/2000/svg"
 width="1080.000000pt" height="1080.000000pt" viewBox="0 0 1080.000000 1080.000000"
 preserveAspectRatio="xMidYMid meet">
<metadata>
Created by potrace 1.14, written by Peter Selinger 2001-2017
</metadata>
<g transform="translate(0.000000,1080.000000) scale(0.100000,-0.100000)"
fill="#000000" stroke="none">
<path d="M2900 5400 l0 -2790 2502 0 2501 0 -7 168 c-28 705 -214 1313 -557
1823 -190 283 -475 571 -732 737 -42 28 -83 52 -90 55 -15 5 -17 4 77 62 183
112 436 344 603 552 430 536 668 1223 700 2016 l6 167 -2501 0 -2502 0 0
-2790z"/>
</g>
</svg>
