<?xml version="1.0" encoding="UTF-8"?><!DOCTYPE svg PUBLIC "-//W3C//DTD SVG 1.1//EN" "http://www.w3.org/Graphics/SVG/1.1/DTD/svg11.dtd"><svg xmlns="http://www.w3.org/2000/svg"><symbol id="icon-calendar" viewBox="0 0 13 13">
    <path d="M0 0v4h13V0H0zm12 3H1V1h11v2zM0 7h3V6H0v1zm5 0h3V6H5v1zm5 0h3V6h-3v1zM0 10h3V9H0v1zm5 0h3V9H5v1zm5 0h3V9h-3v1zM0 13h3v-1H0v1zm5 0h3v-1H5v1zm5 0h3v-1h-3v1z"/>
</symbol><symbol id="icon-close" viewBox="0 0 13 13">
    <path d="M12.4 1.4l-.8-.8-5.1 5.2L1.4.6l-.8.8 5.2 5.1-5.2 5.1.8.8 5.1-5.2 5.1 5.2.8-.8-5.2-5.1z"/>
</symbol><symbol id="icon-facebook" viewBox="0 0 10 19">
    <title>
        facebook
    </title>
    <path d="M9.766.157v2.946H8.014c-.64 0-1.071.134-1.295.402-.223.268-.335.67-.335 1.205v2.11h3.27l-.435 3.303H6.384v8.471H2.97v-8.47H.123V6.82H2.97V4.387c0-1.384.387-2.457 1.161-3.22C4.904.404 5.934.023 7.222.023c1.093 0 1.941.045 2.544.134z" fill-rule="evenodd"/>
</symbol><symbol id="icon-logout" viewBox="0 0 19 15">
    <path d="M13.9 3.1l-.7.7L16.3 7H3v1h13.3l-3.1 3.1.7.7 4.4-4.4-4.4-4.3zM10 14H1V1h9v3h1V0H0v15h11v-4h-1v3z"/>
</symbol><symbol id="icon-profile" viewBox="0 0 19 19">
    <path d="M9.5 4C7.6 4 6 5.6 6 7.5S7.6 11 9.5 11 13 9.4 13 7.5 11.4 4 9.5 4zm0 6C8.1 10 7 8.9 7 7.5S8.1 5 9.5 5 12 6.1 12 7.5 10.9 10 9.5 10zm0-9C4.8 1 1 4.8 1 9.5S4.8 18 9.5 18 18 14.2 18 9.5 14.2 1 9.5 1zM14 15.5c0-1.8-.1-3.5-1.3-4.8l-.7.7c1.1 1.1 1.1 2.7 1.1 4.5v.3c-1 .6-2.2.9-3.5.9s-2.6-.4-3.6-1v-.3c0-1.8 0-3.4 1.1-4.5l-.7-.7C5.1 12 5 13.7 5 15.5c-1.8-1.4-3-3.5-3-6C2 5.4 5.4 2 9.5 2S17 5.4 17 9.5c0 2.4-1.2 4.6-3 6z"/>
</symbol><symbol id="icon-right" viewBox="0 0 284.935 284.936">
    <path d="M222.701 135.9L89.652 2.857C87.748.955 85.557 0 83.084 0c-2.474 0-4.664.955-6.567 2.857L62.244 17.133c-1.906 1.903-2.855 4.089-2.855 6.567 0 2.478.949 4.664 2.855 6.567l112.204 112.204L62.244 254.677c-1.906 1.903-2.855 4.093-2.855 6.564 0 2.477.949 4.667 2.855 6.57l14.274 14.271c1.903 1.905 4.093 2.854 6.567 2.854 2.473 0 4.663-.951 6.567-2.854l133.042-133.044c1.902-1.902 2.854-4.093 2.854-6.567s-.945-4.664-2.847-6.571z"/>
</symbol><symbol id="icon-up" viewBox="0 0 7 5">
    <path d="M6.1 4.9L3.5 2.2.9 4.9l-.8-.8L3.5.8l3.4 3.3z"/>
</symbol></svg>